<?xml version="1.0" standalone="no"?>
<!DOCTYPE svg PUBLIC "-//W3C//DTD SVG 1.1//EN" "http://www.w3.org/Graphics/SVG/1.1/DTD/svg11.dtd" >
<svg xmlns="http://www.w3.org/2000/svg">
<metadata>
This is a custom SVG webfont generated by Font Squirrel.
Copyright   : Copyright fodkito 2009
Designer    : fodkito
Foundry     : httpfontstructfontshopcom
Foundry URL : httpwwwfontshopcom
</metadata>
<defs>
<font id="GameOverRegular" horiz-adv-x="448" >
<font-face units-per-em="2048" ascent="1638" descent="-410" />
<missing-glyph horiz-adv-x="192" />
<glyph unicode=" "  horiz-adv-x="192" />
<glyph unicode="&#x09;" horiz-adv-x="192" />
<glyph unicode="&#xa0;" horiz-adv-x="192" />
<glyph unicode="!" horiz-adv-x="192" d="M64 0v128h128v-128h-128zM64 192v384h128v-384h-128z" />
<glyph unicode="&#x22;" horiz-adv-x="256" d="M64 576v128h64v-128h-64zM192 576v128h64v-128h-64z" />
<glyph unicode="#" horiz-adv-x="512" d="M64 128v64h64v192h-64v64h64v128h128v-128h64v128h128v-128h64v-64h-64v-192h64v-64h-64v-128h-128v128h-64v-128h-128v128h-64zM256 192h64v192h-64v-192z" />
<glyph unicode="$" d="M64 0v64h128v192h-64v64h-64v192h64v64h128v64h64v-64h128v-64h-128v-192h64v-64h64v-192h-64v-64h-128v-64h-64v64h-128zM192 320h64v192h-64v-192zM256 64h64v192h-64v-192z" />
<glyph unicode="%" horiz-adv-x="576" d="M128 128v64h64v-64h-64zM192 64v64h64v-64h-64zM192 192v64h64v-64h-64zM256 128v64h64v320h64v-128h64v-64h-64v-320h-64v128h-64zM448 256v64h64v-64h-64zM448 384v64h64v-64h-64zM512 320v64h64v-64h-64z" />
<glyph unicode="&#x26;" horiz-adv-x="512" d="M64 64v192h64v64h-64v192h64v64h256v-64h64v-128h-64v-64h-64v192h-128v-192h128v-128h-64v64h-64v-192h128v128h128v64h64v-128h-64v-128h-320v64h-64zM448 0h64v-64h-64v64z" />
<glyph unicode="'" horiz-adv-x="128" d="M64 576v128h64v-128h-64z" />
<glyph unicode="(" horiz-adv-x="256" d="M64 64v448h64v64h128v-64h-64v-448h64v-64h-128v64h-64z" />
<glyph unicode=")" horiz-adv-x="256" d="M64 0v64h64v448h-64v64h128v-64h64v-448h-64v-64h-128z" />
<glyph unicode="*" horiz-adv-x="256" d="M64 640v64h64v-64h-64zM128 576v64h64v-64h-64zM128 704v64h64v-64h-64zM192 640v64h64v-64h-64z" />
<glyph unicode="+" d="M64 192v64h128v128h128v-128h128v-64h-128v-128h-128v128h-128z" />
<glyph unicode="," horiz-adv-x="128" d="M64 0v64h64v-128h-32v64h-32z" />
<glyph unicode="-" d="M64 192v64h384v-64h-384z" />
<glyph unicode="." horiz-adv-x="128" d="M64 0v64h64v-64h-64z" />
<glyph unicode="/" horiz-adv-x="320" d="M64 0v128h64v-128h-64zM128 128v192h64v-192h-64zM192 320v128h64v-128h-64zM256 448v128h64v-128h-64z" />
<glyph unicode="0" d="M64 64v448h64v64h256v-64h64v-448h-64v-64h-256v64h-64zM192 64h128v448h-128v-448z" />
<glyph unicode="1" horiz-adv-x="320" d="M64 448v64h64v-64h-64zM128 512v64h192v-576h-128v512h-64z" />
<glyph unicode="2" d="M64 0v320h64v64h192v128h-256v64h320v-64h64v-128h-64v-64h-192v-256h256v-64h-384z" />
<glyph unicode="3" d="M64 0v64h256v256h-128v64h128v128h-256v64h320v-64h64v-128h-64v-64h64v-256h-64v-64h-320z" />
<glyph unicode="4" d="M64 256v128h64v64h64v64h64v64h128v-64h-64v-64h-64v-64h-64v-64h128v64h128v-384h-128v256h-256z" />
<glyph unicode="5" d="M64 0v64h256v256h-256v256h384v-64h-256v-128h192v-64h64v-256h-64v-64h-320z" />
<glyph unicode="6" d="M64 64v448h64v64h320v-64h-256v-128h192v-64h-192v-256h192v-64h-256v64h-64zM384 64v256h64v-256h-64z" />
<glyph unicode="7" d="M64 512v64h384v-128h-64v-128h-64v-320h-128v320h64v128h64v64h-256z" />
<glyph unicode="8" d="M64 64v256h64v64h-64v128h64v64h256v-64h64v-128h-64v-64h64v-256h-64v-64h-256v64h-64zM192 64h128v256h-128v-256zM192 384h128v128h-128v-128z" />
<glyph unicode="9" d="M64 384v128h64v64h256v-64h64v-448h-64v-64h-256v64h192v256h-192v64h-64zM192 384h128v128h-128v-128z" />
<glyph unicode=":" horiz-adv-x="128" d="M64 0v64h64v-64h-64zM64 256v64h64v-64h-64z" />
<glyph unicode=";" horiz-adv-x="128" d="M64 0v64h64v-128h-32v64h-32zM64 256v64h64v-64h-64z" />
<glyph unicode="&#x3c;" horiz-adv-x="384" d="M64 0v64h32v-64h-32zM64 288v32h128v-32h-128zM128 32v32h64v-32h-64zM192 64v32h64v32h64v-64h-128zM192 256v32h64v-32h-64zM256 192v64h64v-64h-64zM320 128v64h64v-64h-64z" />
<glyph unicode="=" d="M64 128v64h384v-64h-384zM64 256v64h384v-64h-384z" />
<glyph unicode="&#x3e;" horiz-adv-x="384" d="M64 192v64h64v-64h-64zM128 128v64h64v-64h-64zM128 256v64h64v-64h-64zM192 96v32h64v-32h-64zM192 320v32h64v-32h-64zM256 64v32h128v-32h-128zM256 352v32h128v-32h-128z" />
<glyph unicode="?" d="M64 512v64h320v-64h64v-192h-64v-64h-64v-64h-128v128h64v64h64v128h-256zM192 0v128h128v-128h-128z" />
<glyph unicode="@" horiz-adv-x="896" d="M64 320v320h64v128h64v64h64v64h64v64h448v-64h64v-64h64v-64h-64v-64h-64v-64h-64v-64h-64v-64h-64v-64h64v-64h64v-64h64v-64h64v-64h64v-64h-64v-64h-64v-64h-448v64h-64v64h-64v64h-64v128h-64zM512 640h64v128h-64v-128z" />
<glyph unicode="A" horiz-adv-x="576" d="M64 0v256h64v192h64v64h64v64h128v-64h64v-64h64v-192h64v-256h-128v128h-256v-128h-128zM256 192h128v256h-128v-256z" />
<glyph unicode="B" horiz-adv-x="512" d="M64 0v576h384v-64h64v-192h-64v-64h64v-192h-64v-64h-384zM192 64h192v192h-192v-192zM192 320h192v192h-192v-192z" />
<glyph unicode="C" d="M64 64v448h64v64h320v-64h-256v-384h256v-128h-320v64h-64z" />
<glyph unicode="D" horiz-adv-x="512" d="M64 0v576h384v-64h64v-448h-64v-64h-384zM192 64h192v448h-192v-448z" />
<glyph unicode="E" horiz-adv-x="512" d="M64 64v448h64v64h384v-64h-320v-192h256v-64h-256v-128h320v-128h-384v64h-64z" />
<glyph unicode="F" d="M64 0v512h64v64h320v-64h-256v-192h192v-64h-192v-256h-128z" />
<glyph unicode="G" horiz-adv-x="576" d="M64 128v320h64v64h64v-384h256v128h-192v64h320v-256h-64v-64h-320v64h-64v64h-64zM192 512v64h320v-64h64v-64h-128v64h-256z" />
<glyph unicode="H" horiz-adv-x="512" d="M64 0v576h128v-256h192v256h128v-576h-128v256h-192v-256h-128z" />
<glyph unicode="I" horiz-adv-x="320" d="M64 0v64h64v448h-64v64h256v-64h-64v-448h64v-64h-256z" />
<glyph unicode="J" d="M64 64v192h128v-128h-64v-64h-64zM128 0v64h192v512h128v-576h-320z" />
<glyph unicode="K" horiz-adv-x="512" d="M64 0v576h128v-192h64v64h64v64h64v64h128v-128h-64v-64h-64v-64h-64v-64h64v-64h64v-64h64v-128h-128v64h-64v64h-64v64h-64v-192h-128z" />
<glyph unicode="L" d="M64 64v512h128v-512h256v-64h-320v64h-64z" />
<glyph unicode="M" horiz-adv-x="640" d="M64 0v576h128v-64h64v-64h-64v-448h-128zM256 384v64h64v-64h-64zM320 320v64h64v-64h-64zM384 384v64h64v-64h-64zM448 448v64h64v64h128v-576h-128v448h-64z" />
<glyph unicode="N" horiz-adv-x="576" d="M64 0v576h192v-128h-64v-448h-128zM256 320v128h64v-128h-64zM320 192v128h64v-128h-64zM384 64v128h64v384h128v-576h-128v64h-64z" />
<glyph unicode="O" horiz-adv-x="576" d="M64 64v448h64v64h384v-64h64v-448h-64v-64h-384v64h-64zM192 64h256v448h-256v-448z" />
<glyph unicode="P" horiz-adv-x="512" d="M64 0v576h384v-64h64v-192h-64v-64h-256v-256h-128zM192 320h192v192h-192v-192z" />
<glyph unicode="Q" horiz-adv-x="576" d="M64 64v448h64v64h384v-64h64v-448h-64v-64h64v-64h-192v64h-256v64h-64zM192 64h128v128h64v-64h64v384h-256v-448z" />
<glyph unicode="R" horiz-adv-x="512" d="M64 0v576h384v-64h64v-192h-64v-64h64v-256h-128v256h-192v-256h-128zM192 320h192v192h-192v-192z" />
<glyph unicode="S" d="M64 0v64h256v192h-192v64h-64v192h64v64h320v-64h-256v-192h192v-64h64v-192h-64v-64h-320z" />
<glyph unicode="T" d="M64 512v64h384v-64h-128v-512h-128v512h-128z" />
<glyph unicode="U" horiz-adv-x="512" d="M64 64v512h128v-512h192v512h128v-512h-64v-64h-320v64h-64z" />
<glyph unicode="V" horiz-adv-x="576" d="M64 384v192h128v-192h64v-192h128v192h64v192h128v-192h-64v-192h-64v-128h-64v-64h-128v64h-64v128h-64v192h-64z" />
<glyph unicode="W" horiz-adv-x="896" d="M64 384v192h128v-192h64v-192h128v64h64v64h-64v64h-64v128h64v-64h64v-64h64v64h64v64h64v-128h-64v-64h-64v-64h64v-64h128v192h64v192h128v-192h-64v-256h-64v-64h-64v-64h-128v64h-64v128h-64v-128h-64v-64h-128v64h-64v128h-64v192h-64z" />
<glyph unicode="X" horiz-adv-x="512" d="M64 0v128h64v128h64v64h-64v128h-64v128h128v-128h64v-128h64v128h64v128h128v-128h-64v-128h-64v-64h64v-128h64v-128h-128v128h-64v128h-64v-128h-64v-128h-128z" />
<glyph unicode="Y" horiz-adv-x="576" d="M64 384v192h128v-192h64v-128h128v128h64v192h128v-192h-64v-128h-64v-64h-64v-192h-128v192h-64v64h-64v128h-64z" />
<glyph unicode="Z" horiz-adv-x="640" d="M64 0v64h64v64h64v64h64v64h64v64h64v64h64v64h-384v128h576v-128h-64v-64h-64v-64h-64v-64h-64v-64h-64v-64h320v-128h-576z" />
<glyph unicode="[" horiz-adv-x="256" d="M64 0v576h192v-64h-64v-448h64v-64h-192z" />
<glyph unicode="\" horiz-adv-x="320" d="M64 448v128h64v-128h-64zM128 320v128h64v-128h-64zM192 128v192h64v-192h-64zM256 0v128h64v-128h-64z" />
<glyph unicode="]" horiz-adv-x="256" d="M64 0v64h64v448h-64v64h192v-576h-192z" />
<glyph unicode="^" horiz-adv-x="384" d="M64 576v64h64v-64h-64zM128 640v64h64v-64h-64zM192 704v64h64v-64h-64zM256 640v64h64v-64h-64zM320 576v64h64v-64h-64z" />
<glyph unicode="_" d="M64 0h384v-64h-384v64z" />
<glyph unicode="`" horiz-adv-x="128" d="M64 576v64h64v-64h-64z" />
<glyph unicode="a" d="M64 64v64h64v-64h-64zM64 256v64h320v-64h64v-256h-64v64h-64v64h-192v64h192v64h-256zM128 0v64h192v-64h-192z" />
<glyph unicode="b" d="M64 0v512h128v-192h192v-64h64v-192h-64v-64h-320zM192 64h128v192h-128v-192z" />
<glyph unicode="c" d="M64 64v192h64v64h320v-64h-256v-192h256v-64h-320v64h-64z" />
<glyph unicode="d" d="M64 64v192h64v64h192v192h128v-512h-320v64h-64zM192 64h128v192h-128v-192z" />
<glyph unicode="e" d="M64 64v192h64v64h256v-64h-192v-64h192v-64h-192v-64h256v-64h-320v64h-64zM384 192v64h64v-64h-64z" />
<glyph unicode="f" horiz-adv-x="384" d="M64 0v448h64v64h192v-64h-128v-128h128v-64h-128v-256h-128zM320 384v64h64v-64h-64z" />
<glyph unicode="g" d="M64 64v192h64v64h320v-384h-64v-64h-256v64h192v64h-192v64h-64zM192 64h128v192h-128v-192z" />
<glyph unicode="h" d="M64 0v512h128v-192h192v-64h64v-256h-128v256h-128v-256h-128z" />
<glyph unicode="i" horiz-adv-x="256" d="M64 256v64h192v-320h-128v256h-64zM128 384v128h128v-128h-128z" />
<glyph unicode="j" horiz-adv-x="384" d="M64 -64v128h128v-128h64v384h128v-448h-256v64h-64zM256 384v128h128v-128h-128z" />
<glyph unicode="k" d="M64 0v512h128v-192h64v-128h-64v-192h-128zM256 128v64h64v-64h-64zM256 320v64h64v-64h-64zM320 64v64h64v-64h-64zM320 384v64h64v-64h-64zM384 0v64h64v-64h-64z" />
<glyph unicode="l" horiz-adv-x="192" d="M64 0v512h128v-512h-128z" />
<glyph unicode="m" horiz-adv-x="576" d="M64 0v256h64v64h192v-64h64v-256h-128v256h-64v-256h-128zM384 256v64h128v-64h64v-256h-128v256h-64z" />
<glyph unicode="n" d="M64 0v320h320v-64h64v-256h-128v256h-128v-256h-128z" />
<glyph unicode="o" horiz-adv-x="384" d="M64 64v192h64v64h192v-64h-128v-192h128v-64h-192v64h-64zM320 64v192h64v-192h-64z" />
<glyph unicode="p" d="M64 -128v448h320v-64h64v-192h-64v-64h-192v-128h-128zM192 64h128v192h-128v-192z" />
<glyph unicode="q" d="M64 64v192h64v64h320v-448h-128v128h-192v64h-64zM192 64h128v192h-128v-192z" />
<glyph unicode="r" horiz-adv-x="384" d="M64 0v320h64v-64h64v-256h-128zM192 256v64h192v-64h-192z" />
<glyph unicode="s" d="M64 0v64h320v-64h-320zM64 192v64h64v-64h-64zM128 128v64h256v-64h-256zM128 256v64h320v-64h-320zM384 64v64h64v-64h-64z" />
<glyph unicode="t" horiz-adv-x="320" d="M64 256v64h64v192h128v-192h64v-64h-64v-192h64v-64h-128v64h-64v192h-64z" />
<glyph unicode="u" d="M64 64v256h128v-256h128v256h128v-256h-64v-64h-256v64h-64z" />
<glyph unicode="v" d="M64 128v192h128v-192h128v192h128v-192h-64v-64h-64v-64h-128v64h-64v64h-64z" />
<glyph unicode="w" horiz-adv-x="704" d="M64 128v192h128v-192h128v192h128v-192h128v192h128v-192h-64v-64h-64v-64h-128v64h-128v-64h-128v64h-64v64h-64z" />
<glyph unicode="x" horiz-adv-x="384" d="M64 0v128h64v64h-64v128h128v-128h64v128h128v-128h-64v-64h64v-128h-128v128h-64v-128h-128z" />
<glyph unicode="y" d="M64 64v256h128v-256h128v256h128v-384h-64v-64h-256v64h192v64h-192v64h-64z" />
<glyph unicode="z" d="M64 0v128h128v-64h256v-64h-384zM64 256v64h384v-128h-128v64h-256zM192 128v64h128v-64h-128z" />
<glyph unicode="{" horiz-adv-x="320" d="M64 256v64h64v192h64v64h128v-64h-64v-448h64v-64h-128v64h-64v192h-64z" />
<glyph unicode="|" horiz-adv-x="192" d="M64 0v576h128v-576h-128z" />
<glyph unicode="}" horiz-adv-x="320" d="M64 0v64h64v448h-64v64h128v-64h64v-192h64v-64h-64v-192h-64v-64h-128z" />
<glyph unicode="~" horiz-adv-x="512" d="M64 128v64h64v-64h-64zM128 192v64h64v-64h-64zM192 256v64h64v-64h-64zM256 192v64h64v-64h-64zM320 128v64h64v-64h-64zM384 192v64h64v-64h-64zM448 256v64h64v-64h-64z" />
<glyph unicode="&#xa1;" horiz-adv-x="192" d="M64 0v384h128v-384h-128zM64 448v128h128v-128h-128z" />
<glyph unicode="&#xa6;" horiz-adv-x="192" d="M64 0v192h128v-192h-128zM64 256v320h128v-320h-128z" />
<glyph unicode="&#xa8;" horiz-adv-x="256" d="M64 512v64h64v-64h-64zM192 512v64h64v-64h-64z" />
<glyph unicode="&#xa9;" horiz-adv-x="384" d="M64 704v192h32v-192h-32zM128 640v32h192v-32h-192zM128 768v64h64v-64h-64zM128 928v32h192v-32h-192zM192 704v64h128v-64h-128zM192 832v64h128v-64h-128zM352 704v192h32v-192h-32z" />
<glyph unicode="&#xaa;" horiz-adv-x="192" d="M64 448v64h96v32h-64v32h96v-128h-32v32h-64v-32h-32zM96 416v32h64v-32h-64z" />
<glyph unicode="&#xab;" horiz-adv-x="384" d="M64 192v64h64v-64h-64zM128 128v64h64v-64h-64zM128 256v64h64v-64h-64zM192 64v64h64v-64h-64zM192 192v64h64v-64h-64zM192 320v64h64v-64h-64zM256 128v64h64v-64h-64zM256 256v64h64v-64h-64zM320 64v64h64v-64h-64zM320 320v64h64v-64h-64z" />
<glyph unicode="&#xac;" horiz-adv-x="320" d="M64 192v64h256v-128h-64v64h-192z" />
<glyph unicode="&#xad;" horiz-adv-x="256" d="M64 192v64h192v-64h-192z" />
<glyph unicode="&#xae;" horiz-adv-x="384" d="M64 704v192h32v-192h-32zM128 640v32h192v-32h-192zM128 704v192h160v-128h32v-64h-64v64h-64v-64h-64zM128 928v32h192v-32h-192zM192 800h64v32h-64v-32zM352 704v192h32v-192h-32z" />
<glyph unicode="&#xaf;" horiz-adv-x="384" d="M64 512v64h320v-64h-320z" />
<glyph unicode="&#xb0;" horiz-adv-x="256" d="M64 576v192h192v-192h-192zM128 640h64v64h-64v-64z" />
<glyph unicode="&#xb1;" horiz-adv-x="384" d="M64 0v64h128v128h-128v64h128v128h64v-128h128v-64h-128v-128h128v-64h-320z" />
<glyph unicode="&#xb2;" horiz-adv-x="256" d="M64 704v32h128v-32h-128zM96 576v64h32v-32h128v-32h-160zM128 640v32h64v32h32v-64h-96z" />
<glyph unicode="&#xb3;" horiz-adv-x="256" d="M64 608v32h160v64h-32v-32h-64v32h-64v32h192v-128h-192z" />
<glyph unicode="&#xb4;" horiz-adv-x="192" d="M64 576v64h64v-64h-64zM128 640v64h64v-64h-64z" />
<glyph unicode="&#xb5;" horiz-adv-x="384" d="M64 -192v512h64v-256h192v-64h-192v-192h-64zM320 0h64v-64h-64v64zM320 64v256h64v-256h-64z" />
<glyph unicode="&#xb6;" horiz-adv-x="384" d="M64 192v64h64v64h64v-192h-64v64h-64zM224 -192v512h160v-512h-160z" />
<glyph unicode="&#xb7;" horiz-adv-x="192" d="M128 256v64h64v-64h-64z" />
<glyph unicode="&#xb9;" horiz-adv-x="192" d="M64 640v64h64v64h64v-192h-64v64h-64z" />
<glyph unicode="&#xba;" horiz-adv-x="256" d="M64 576v192h192v-192h-192zM128 640h64v64h-64v-64z" />
<glyph unicode="&#xbb;" horiz-adv-x="384" d="M64 64v64h64v-64h-64zM64 320v64h64v-64h-64zM128 128v64h64v-64h-64zM128 256v64h64v-64h-64zM192 64v64h64v-64h-64zM192 192v64h64v-64h-64zM192 320v64h64v-64h-64zM256 128v64h64v-64h-64zM256 256v64h64v-64h-64zM320 192v64h64v-64h-64z" />
<glyph unicode="&#xbf;" d="M64 64v192h64v64h64v64h128v-128h-64v-64h-64v-128h256v-64h-320v64h-64zM192 448v128h128v-128h-128z" />
<glyph unicode="&#xc0;" horiz-adv-x="576" d="M64 0v256h64v192h64v64h64v64h128v-64h64v-64h64v-192h64v-256h-128v128h-256v-128h-128zM256 192h128v256h-128v-256zM288 698v64h64v-64h-64z" />
<glyph unicode="&#xc1;" horiz-adv-x="576" d="M64 0v256h64v192h64v64h64v64h128v-64h64v-64h64v-192h64v-256h-128v128h-256v-128h-128zM256 192h128v256h-128v-256zM320 640v64h64v-64h-64zM384 704v64h64v-64h-64z" />
<glyph unicode="&#xc2;" horiz-adv-x="576" d="M64 0v256h64v192h64v64h64v64h128v-64h64v-64h64v-192h64v-256h-128v128h-256v-128h-128zM160 698v64h64v-64h-64zM224 762v64h64v-64h-64zM256 192h128v256h-128v-256zM288 826v64h64v-64h-64zM352 762v64h64v-64h-64zM416 698v64h64v-64h-64z" />
<glyph unicode="&#xc3;" horiz-adv-x="576" d="M64 0v256h64v192h64v64h64v64h128v-64h64v-64h64v-192h64v-256h-128v128h-256v-128h-128zM96 698v64h64v-64h-64zM160 762v64h64v-64h-64zM224 826v64h64v-64h-64zM256 192h128v256h-128v-256zM288 762v64h64v-64h-64zM352 698v64h64v-64h-64zM416 762v64h64v-64h-64z M480 826v64h64v-64h-64z" />
<glyph unicode="&#xc4;" horiz-adv-x="576" d="M64 0v256h64v192h64v64h64v64h128v-64h64v-64h64v-192h64v-256h-128v128h-256v-128h-128zM224 698v64h64v-64h-64zM256 192h128v256h-128v-256zM352 698v64h64v-64h-64z" />
<glyph unicode="&#xc5;" horiz-adv-x="576" d="M64 0v256h64v192h64v64h64v64h128v-64h64v-64h64v-192h64v-256h-128v128h-256v-128h-128zM224 570v192h192v-192h-192zM256 192h128v256h-128v-256zM288 634h64v64h-64v-64z" />
<glyph unicode="&#xc7;" d="M64 64v448h64v64h320v-64h-256v-384h256v-192h-64v64h-256v64h-64zM320 -64h64v-64h-64v64z" />
<glyph unicode="&#xc8;" horiz-adv-x="512" d="M64 64v448h64v64h384v-64h-320v-192h256v-64h-256v-128h320v-128h-384v64h-64zM288 698v64h64v-64h-64z" />
<glyph unicode="&#xc9;" horiz-adv-x="512" d="M64 64v448h64v64h384v-64h-320v-192h256v-64h-256v-128h320v-128h-384v64h-64zM320 640v64h64v-64h-64zM384 704v64h64v-64h-64z" />
<glyph unicode="&#xca;" horiz-adv-x="512" d="M64 64v448h64v64h384v-64h-320v-192h256v-64h-256v-128h320v-128h-384v64h-64zM160 698v64h64v-64h-64zM224 762v64h64v-64h-64zM288 826v64h64v-64h-64zM352 762v64h64v-64h-64zM416 698v64h64v-64h-64z" />
<glyph unicode="&#xcb;" horiz-adv-x="512" d="M64 64v448h64v64h384v-64h-320v-192h256v-64h-256v-128h320v-128h-384v64h-64zM224 698v64h64v-64h-64zM352 698v64h64v-64h-64z" />
<glyph unicode="&#xcc;" horiz-adv-x="320" d="M64 0v64h64v448h-64v64h256v-64h-64v-448h64v-64h-256zM160 698v64h64v-64h-64z" />
<glyph unicode="&#xcd;" horiz-adv-x="320" d="M64 0v64h64v448h-64v64h256v-64h-64v-448h64v-64h-256zM192 640v64h64v-64h-64zM256 704v64h64v-64h-64z" />
<glyph unicode="&#xce;" horiz-adv-x="320" d="M32 698v64h64v-64h-64zM64 0v64h64v448h-64v64h256v-64h-64v-448h64v-64h-256zM96 762v64h64v-64h-64zM160 826v64h64v-64h-64zM224 762v64h64v-64h-64zM288 698v64h64v-64h-64z" />
<glyph unicode="&#xcf;" horiz-adv-x="320" d="M64 0v64h64v448h-64v64h256v-64h-64v-448h64v-64h-256zM96 698v64h64v-64h-64zM224 698v64h64v-64h-64z" />
<glyph unicode="&#xd1;" horiz-adv-x="576" d="M64 0v576h192v-128h-64v-448h-128zM192 640v64h256v-64h-256zM256 320v128h64v-128h-64zM320 192v128h64v-128h-64zM384 64v128h64v384h128v-576h-128v64h-64z" />
<glyph unicode="&#xd2;" horiz-adv-x="576" d="M64 64v448h64v64h384v-64h64v-448h-64v-64h-384v64h-64zM192 64h256v448h-256v-448zM288 698v64h64v-64h-64z" />
<glyph unicode="&#xd3;" horiz-adv-x="576" d="M64 64v448h64v64h384v-64h64v-448h-64v-64h-384v64h-64zM192 64h256v448h-256v-448zM320 640v64h64v-64h-64zM384 704v64h64v-64h-64z" />
<glyph unicode="&#xd4;" horiz-adv-x="576" d="M64 64v448h64v64h384v-64h64v-448h-64v-64h-384v64h-64zM160 698v64h64v-64h-64zM192 64h256v448h-256v-448zM224 762v64h64v-64h-64zM288 826v64h64v-64h-64zM352 762v64h64v-64h-64zM416 698v64h64v-64h-64z" />
<glyph unicode="&#xd5;" horiz-adv-x="576" d="M64 64v448h64v64h384v-64h64v-448h-64v-64h-384v64h-64zM96 698v64h64v-64h-64zM160 762v64h64v-64h-64zM192 64h256v448h-256v-448zM224 826v64h64v-64h-64zM288 762v64h64v-64h-64zM352 698v64h64v-64h-64zM416 762v64h64v-64h-64zM480 826v64h64v-64h-64z" />
<glyph unicode="&#xd6;" horiz-adv-x="576" d="M64 64v448h64v64h384v-64h64v-448h-64v-64h-384v64h-64zM192 64h256v448h-256v-448zM224 698v64h64v-64h-64zM352 698v64h64v-64h-64z" />
<glyph unicode="&#xd7;" horiz-adv-x="384" d="M64 64v64h64v-64h-64zM64 320v64h64v-64h-64zM128 128v64h64v-64h-64zM128 256v64h64v-64h-64zM192 192v64h64v-64h-64zM256 128v64h64v-64h-64zM256 256v64h64v-64h-64zM320 64v64h64v-64h-64zM320 320v64h64v-64h-64z" />
<glyph unicode="&#xd9;" horiz-adv-x="512" d="M64 64v512h128v-512h192v512h128v-512h-64v-64h-320v64h-64zM256 698v64h64v-64h-64z" />
<glyph unicode="&#xda;" horiz-adv-x="512" d="M64 64v512h128v-512h192v512h128v-512h-64v-64h-320v64h-64zM320 640v64h64v-64h-64zM384 704v64h64v-64h-64z" />
<glyph unicode="&#xdb;" horiz-adv-x="512" d="M64 64v512h128v-512h192v512h128v-512h-64v-64h-320v64h-64zM128 698v64h64v-64h-64zM192 762v64h64v-64h-64zM256 826v64h64v-64h-64zM320 762v64h64v-64h-64zM384 698v64h64v-64h-64z" />
<glyph unicode="&#xdc;" horiz-adv-x="512" d="M64 64v512h128v-512h192v512h128v-512h-64v-64h-320v64h-64zM192 698v64h64v-64h-64zM320 698v64h64v-64h-64z" />
<glyph unicode="&#xdd;" horiz-adv-x="576" d="M64 384v192h128v-192h64v-128h128v128h64v192h128v-192h-64v-128h-64v-64h-64v-192h-128v192h-64v64h-64v128h-64zM288 698v64h64v-64h-64zM352 762v64h64v-64h-64z" />
<glyph unicode="&#xe0;" d="M64 64v64h64v-64h-64zM64 256v64h320v-64h64v-256h-64v64h-64v64h-192v64h192v64h-256zM128 0v64h192v-64h-192zM192 442v64h64v-64h-64z" />
<glyph unicode="&#xe1;" d="M64 64v64h64v-64h-64zM64 256v64h320v-64h64v-256h-64v64h-64v64h-192v64h192v64h-256zM128 0v64h192v-64h-192zM256 384v64h64v-64h-64zM320 448v64h64v-64h-64z" />
<glyph unicode="&#xe2;" d="M64 64v64h64v-64h-64zM64 256v64h320v-64h64v-256h-64v64h-64v64h-192v64h192v64h-256zM64 442v64h64v-64h-64zM128 0v64h192v-64h-192zM128 506v64h64v-64h-64zM192 570v64h64v-64h-64zM256 506v64h64v-64h-64zM320 442v64h64v-64h-64z" />
<glyph unicode="&#xe3;" d="M0 442v64h64v-64h-64zM64 64v64h64v-64h-64zM64 256v64h320v-64h64v-256h-64v64h-64v64h-192v64h192v64h-256zM64 506v64h64v-64h-64zM128 0v64h192v-64h-192zM128 570v64h64v-64h-64zM192 506v64h64v-64h-64zM256 442v64h64v-64h-64zM320 506v64h64v-64h-64zM384 570v64 h64v-64h-64z" />
<glyph unicode="&#xe4;" d="M64 64v64h64v-64h-64zM64 256v64h320v-64h64v-256h-64v64h-64v64h-192v64h192v64h-256zM128 0v64h192v-64h-192zM128 442v64h64v-64h-64zM256 442v64h64v-64h-64z" />
<glyph unicode="&#xe5;" d="M64 64v64h64v-64h-64zM64 256v64h320v-64h64v-256h-64v64h-64v64h-192v64h192v64h-256zM128 0v64h192v-64h-192zM128 442v192h192v-192h-192zM192 506h64v64h-64v-64z" />
<glyph unicode="&#xe7;" d="M64 64v192h64v64h320v-64h-256v-192h256v-128h-64v64h-256v64h-64zM320 -64h64v-64h-64v64z" />
<glyph unicode="&#xe8;" d="M64 64v192h64v64h256v-64h-192v-64h192v-64h-192v-64h256v-64h-320v64h-64zM224 442v64h64v-64h-64zM384 192v64h64v-64h-64z" />
<glyph unicode="&#xe9;" d="M64 64v192h64v64h256v-64h-192v-64h192v-64h-192v-64h256v-64h-320v64h-64zM256 384v64h64v-64h-64zM320 448v64h64v-64h-64zM384 192v64h64v-64h-64z" />
<glyph unicode="&#xea;" d="M64 64v192h64v64h256v-64h-192v-64h192v-64h-192v-64h256v-64h-320v64h-64zM96 442v64h64v-64h-64zM160 506v64h64v-64h-64zM224 570v64h64v-64h-64zM288 506v64h64v-64h-64zM352 442v64h64v-64h-64zM384 192v64h64v-64h-64z" />
<glyph unicode="&#xeb;" d="M64 64v192h64v64h256v-64h-192v-64h192v-64h-192v-64h256v-64h-320v64h-64zM160 442v64h64v-64h-64zM288 442v64h64v-64h-64zM384 192v64h64v-64h-64z" />
<glyph unicode="&#xec;" horiz-adv-x="256" d="M64 256v64h192v-320h-128v256h-64zM128 384v128h128v-128h-128zM160 634v64h64v-64h-64z" />
<glyph unicode="&#xed;" horiz-adv-x="256" d="M64 256v64h192v-320h-128v256h-64zM128 384v64h64v-64h-64zM192 448v64h64v-64h-64z" />
<glyph unicode="&#xee;" horiz-adv-x="256" d="M32 634v64h64v-64h-64zM64 256v64h192v-320h-128v256h-64zM96 698v64h64v-64h-64zM128 384v128h128v-128h-128zM160 762v64h64v-64h-64zM224 698v64h64v-64h-64zM288 634v64h64v-64h-64z" />
<glyph unicode="&#xef;" horiz-adv-x="256" d="M64 256v64h192v-320h-128v256h-64zM96 634v64h64v-64h-64zM128 384v128h128v-128h-128zM224 634v64h64v-64h-64z" />
<glyph unicode="&#xf1;" d="M64 0v320h320v-64h64v-256h-128v256h-128v-256h-128zM128 384v64h256v-64h-256z" />
<glyph unicode="&#xf2;" horiz-adv-x="384" d="M64 64v192h64v64h192v-64h-128v-192h128v-64h-192v64h-64zM192 442v64h64v-64h-64zM320 64v192h64v-192h-64z" />
<glyph unicode="&#xf3;" horiz-adv-x="384" d="M64 64v192h64v64h192v-64h-128v-192h128v-64h-192v64h-64zM192 384v64h64v-64h-64zM256 448v64h64v-64h-64zM320 64v192h64v-192h-64z" />
<glyph unicode="&#xf4;" horiz-adv-x="384" d="M64 64v192h64v64h192v-64h-128v-192h128v-64h-192v64h-64zM64 442v64h64v-64h-64zM128 506v64h64v-64h-64zM192 570v64h64v-64h-64zM256 506v64h64v-64h-64zM320 64v192h64v-192h-64zM320 442v64h64v-64h-64z" />
<glyph unicode="&#xf5;" horiz-adv-x="384" d="M0 442v64h64v-64h-64zM64 64v192h64v64h192v-64h-128v-192h128v-64h-192v64h-64zM64 506v64h64v-64h-64zM128 570v64h64v-64h-64zM192 506v64h64v-64h-64zM256 442v64h64v-64h-64zM320 64v192h64v-192h-64zM320 506v64h64v-64h-64zM384 570v64h64v-64h-64z" />
<glyph unicode="&#xf6;" horiz-adv-x="384" d="M64 64v192h64v64h192v-64h-128v-192h128v-64h-192v64h-64zM128 442v64h64v-64h-64zM256 442v64h64v-64h-64zM320 64v192h64v-192h-64z" />
<glyph unicode="&#xf7;" horiz-adv-x="384" d="M64 192v64h320v-64h-320zM192 64v64h64v-64h-64zM192 320v64h64v-64h-64z" />
<glyph unicode="&#xf9;" d="M64 64v256h128v-256h128v256h128v-256h-64v-64h-256v64h-64zM224 442v64h64v-64h-64z" />
<glyph unicode="&#xfa;" d="M64 64v256h128v-256h128v256h128v-256h-64v-64h-256v64h-64zM256 384v64h64v-64h-64zM320 448v64h64v-64h-64z" />
<glyph unicode="&#xfb;" d="M64 64v256h128v-256h128v256h128v-256h-64v-64h-256v64h-64zM96 442v64h64v-64h-64zM160 506v64h64v-64h-64zM224 570v64h64v-64h-64zM288 506v64h64v-64h-64zM352 442v64h64v-64h-64z" />
<glyph unicode="&#xfc;" d="M64 64v256h128v-256h128v256h128v-256h-64v-64h-256v64h-64zM160 442v64h64v-64h-64zM288 442v64h64v-64h-64z" />
<glyph unicode="&#xfd;" d="M64 64v256h128v-256h128v256h128v-384h-64v-64h-256v64h192v64h-192v64h-64zM224 442v64h64v-64h-64zM288 506v64h64v-64h-64z" />
<glyph unicode="&#xff;" d="M64 64v256h128v-256h128v256h128v-384h-64v-64h-256v64h192v64h-192v64h-64zM160 442v64h64v-64h-64zM288 442v64h64v-64h-64z" />
<glyph unicode="&#x152;" horiz-adv-x="1088" d="M64 64v448h64v64h384v-64h64v-448h-64v-64h-384v64h-64zM192 64h256v448h-256v-448zM640 64v448h64v64h384v-64h-320v-192h256v-64h-256v-128h320v-128h-384v64h-64z" />
<glyph unicode="&#x153;" horiz-adv-x="832" d="M64 64v192h64v64h192v-64h-128v-192h128v-64h-192v64h-64zM320 64v192h64v-192h-64zM448 64v192h64v64h256v-64h-192v-64h192v-64h-192v-64h256v-64h-320v64h-64zM768 192v64h64v-64h-64z" />
<glyph unicode="&#x178;" horiz-adv-x="576" d="M64 384v192h128v-192h64v-128h128v128h64v192h128v-192h-64v-128h-64v-64h-64v-192h-128v192h-64v64h-64v128h-64zM224 698v64h64v-64h-64zM352 698v64h64v-64h-64z" />
<glyph unicode="&#x2c6;" horiz-adv-x="384" d="M64 576v64h64v-64h-64zM128 640v64h64v-64h-64zM192 704v64h64v-64h-64zM256 640v64h64v-64h-64zM320 576v64h64v-64h-64z" />
<glyph unicode="&#x2dc;" horiz-adv-x="192" d="M-224 122v64h64v-64h-64zM-160 186v64h64v-64h-64zM-96 250v64h64v-64h-64zM-32 186v64h64v-64h-64zM32 122v64h64v-64h-64zM96 186v64h64v-64h-64zM160 250v64h64v-64h-64z" />
<glyph unicode="&#x2013;" horiz-adv-x="1024" d="M64 192v64h960v-64h-960z" />
<glyph unicode="&#x2014;" horiz-adv-x="512" d="M64 192v64h448v-64h-448z" />
<glyph unicode="&#x2018;" horiz-adv-x="160" d="M64 576v192h64v-64h32v-128h-96z" />
<glyph unicode="&#x2019;" horiz-adv-x="96" d="M0 640v128h96v-192h-64v64h-32z" />
<glyph unicode="&#x201c;" horiz-adv-x="288" d="M64 576v192h96v-128h-64v-64h-32zM192 576v192h96v-128h-64v-64h-32z" />
<glyph unicode="&#x201d;" horiz-adv-x="288" d="M64 640v128h96v-192h-32v64h-64zM192 640v128h96v-192h-32v64h-64z" />
<glyph unicode="&#x2026;" horiz-adv-x="384" d="M64 0v64h64v-64h-64zM192 0v64h64v-64h-64zM320 0v64h64v-64h-64z" />
<glyph unicode="&#x2039;" horiz-adv-x="384" d="M64 0v64h32v-64h-32zM64 288v32h128v-32h-128zM128 32v32h64v-32h-64zM192 64v32h64v32h64v-64h-128zM192 256v32h64v-32h-64zM256 192v64h64v-64h-64zM320 128v64h64v-64h-64z" />
<glyph unicode="&#x203a;" horiz-adv-x="384" d="M64 192v64h64v-64h-64zM128 128v64h64v-64h-64zM128 256v64h64v-64h-64zM192 96v32h64v-32h-64zM192 320v32h64v-32h-64zM256 64v32h128v-32h-128zM256 352v32h128v-32h-128z" />
<glyph unicode="&#x2122;" d="M64 864v32h64v-32h-64zM160 704v192h96v-32h-64v-160h-32zM288 704v192h32v-192h-32zM352 768v64h32v-64h-32zM416 704v192h32v-192h-32z" />
<glyph unicode="&#xe000;" horiz-adv-x="320" d="M0 320h320v-320h-320v320z" />
<glyph unicode="&#xfb01;" horiz-adv-x="640" d="M64 0v448h64v64h192v-64h-128v-128h128v-64h-128v-256h-128zM320 384v64h64v-64h-64zM448 256v64h192v-320h-128v256h-64zM512 384v128h128v-128h-128z" />
<glyph unicode="&#xfb02;" horiz-adv-x="576" d="M64 0v448h64v64h192v-64h-128v-128h128v-64h-128v-256h-128zM320 384v64h64v-64h-64zM448 0v512h128v-512h-128z" />
<glyph unicode="&#xfb03;" horiz-adv-x="1024" d="M64 0v448h64v64h192v-64h-128v-128h128v-64h-128v-256h-128zM320 384v64h64v-64h-64zM448 0v448h64v64h192v-64h-128v-128h128v-64h-128v-256h-128zM704 384v64h64v-64h-64zM832 256v64h192v-320h-128v256h-64zM896 384v128h128v-128h-128z" />
<glyph unicode="&#xfb04;" horiz-adv-x="960" d="M64 0v448h64v64h192v-64h-128v-128h128v-64h-128v-256h-128zM320 384v64h64v-64h-64zM448 0v448h64v64h192v-64h-128v-128h128v-64h-128v-256h-128zM704 384v64h64v-64h-64zM832 0v512h128v-512h-128z" />
</font>
</defs>
</svg>
